<svg xmlns="http://www.w3.org/2000/svg" viewBox="0 0 32 32">
  <rect width="32" height="32" fill="hsl(95, 60%, 25%)" rx="4"/>
  <path d="M16 7c-3.5 0-5.5 3-5.5 6.5 0 1.5.5 2.5 1 3.5-.5.5-1 1.5-1 2.5 0 2 1.5 3.5 3.5 3.5h4c2 0 3.5-1.5 3.5-3.5 0-1-.5-2-1-2.5.5-1 1-2 1-3.5C21 10 19 7 16 7zm0 2c2 0 3.5 1.5 3.5 4.5 0 1-.5 2-1 3l-.5.5.5.5c.5.5 1 1 1 2 0 1-.5 1.5-1.5 1.5h-4c-1 0-1.5-.5-1.5-1.5 0-1 .5-1.5 1-2l.5-.5-.5-.5c-.5-1-1-2-1-3C12.5 10.5 14 9 16 9z" fill="white"/>
  <path d="M16 23v5" stroke="white" stroke-width="2" stroke-linecap="round"/>
</svg>
